<svg width="18" height="14" viewBox="0 0 18 14" fill="none" xmlns="http://www.w3.org/2000/svg">
<path d="M6.64047 13.4245C6.4925 13.424 6.34621 13.3931 6.21068 13.3337C6.07516 13.2743 5.9533 13.1877 5.85268 13.0792L0.60795 7.49992C0.411895 7.29099 0.306869 7.01273 0.315976 6.72636C0.325083 6.43999 0.447578 6.16896 0.656512 5.97291C0.865447 5.77685 1.14371 5.67183 1.43008 5.68093C1.71645 5.69004 1.98747 5.81254 2.18353 6.02147L6.62968 10.759L15.7054 0.830697C15.7975 0.716006 15.9121 0.621355 16.0421 0.552557C16.1721 0.48376 16.3148 0.442267 16.4615 0.430629C16.6081 0.418991 16.7556 0.437453 16.8948 0.484881C17.0341 0.532309 17.1621 0.607701 17.2712 0.706427C17.3802 0.805153 17.4679 0.925129 17.5289 1.05899C17.5899 1.19284 17.6229 1.33775 17.6258 1.48482C17.6288 1.63188 17.6016 1.778 17.546 1.91419C17.4904 2.05038 17.4076 2.17377 17.3026 2.27678L7.43905 13.0684C7.33938 13.1789 7.21795 13.2675 7.08238 13.3288C6.94681 13.3901 6.80003 13.4227 6.65126 13.4245H6.64047Z" fill="#F2B705"/>
</svg>
