<svg width="27" height="27" viewBox="0 0 27 27" fill="none" xmlns="http://www.w3.org/2000/svg">
<path d="M13.511 0.585205C10.9545 0.585205 8.45538 1.34331 6.3297 2.76364C4.20402 4.18398 2.54725 6.20275 1.56891 8.56469C0.590562 10.9266 0.334582 13.5256 0.833338 16.033C1.33209 18.5404 2.56318 20.8437 4.37093 22.6514C6.17867 24.4591 8.48188 25.6902 10.9893 26.189C13.4967 26.6877 16.0957 26.4318 18.4576 25.4534C20.8196 24.4751 22.8383 22.8183 24.2587 20.6926C25.679 18.5669 26.4371 16.0678 26.4371 13.5113C26.4371 11.8138 26.1028 10.133 25.4532 8.56469C24.8036 6.99642 23.8515 5.57146 22.6512 4.37117C21.4509 3.17087 20.0259 2.21874 18.4576 1.56914C16.8894 0.919548 15.2085 0.585205 13.511 0.585205ZM13.511 23.8521C11.4658 23.8521 9.46651 23.2457 7.76597 22.1094C6.06542 20.9731 4.74001 19.3581 3.95733 17.4686C3.17466 15.579 2.96988 13.4998 3.36888 11.4939C3.76788 9.48795 4.75276 7.64538 6.19895 6.19919C7.64515 4.75299 9.48771 3.76812 11.4936 3.36912C13.4996 2.97011 15.5788 3.1749 17.4683 3.95757C19.3579 4.74025 20.9729 6.06566 22.1092 7.76621C23.2454 9.46675 23.8519 11.4661 23.8519 13.5113C23.8519 16.2538 22.7624 18.8841 20.8231 20.8234C18.8839 22.7627 16.2536 23.8521 13.511 23.8521Z" fill="#D90504"/>
<path d="M13.9505 7.62986C13.6338 7.33799 13.2383 7.14562 12.8131 7.07668C12.388 7.00773 11.9519 7.06525 11.5592 7.24208C11.178 7.3963 10.8514 7.66069 10.6211 8.00145C10.3909 8.34221 10.2674 8.74388 10.2666 9.15514V17.8673C10.2674 18.2786 10.3909 18.6802 10.6211 19.021C10.8514 19.3618 11.178 19.6262 11.5592 19.7804C11.8394 19.9075 12.1434 19.9736 12.4511 19.9743C13.0055 19.9718 13.5395 19.7647 13.9505 19.3926L18.6815 15.0365C18.8931 14.8427 19.062 14.6071 19.1776 14.3445C19.2932 14.0819 19.3529 13.7981 19.3529 13.5112C19.3529 13.2243 19.2932 12.9406 19.1776 12.678C19.062 12.4154 18.8931 12.1797 18.6815 11.986L13.9505 7.62986ZM12.8647 16.872V10.1504L16.497 13.5112L12.8647 16.872Z" fill="#D90504"/>
</svg>
