<svg width="48" height="48" viewBox="0 0 48 48" fill="none" xmlns="http://www.w3.org/2000/svg">
<path d="M44.3235 21.0294H26.8529V3.55874C26.8529 2.78649 26.5461 2.04587 26 1.49981C25.454 0.953748 24.7134 0.646973 23.9411 0.646973C23.1689 0.646973 22.4282 0.953748 21.8822 1.49981C21.3361 2.04587 21.0294 2.78649 21.0294 3.55874V21.0294H3.55874C2.78649 21.0294 2.04587 21.3361 1.49981 21.8822C0.953748 22.4282 0.646973 23.1689 0.646973 23.9411C0.646973 24.7134 0.953748 25.454 1.49981 26C2.04587 26.5461 2.78649 26.8529 3.55874 26.8529H21.0294V44.3235C21.0294 45.0957 21.3361 45.8364 21.8822 46.3824C22.4282 46.9285 23.1689 47.2353 23.9411 47.2353C24.7134 47.2353 25.454 46.9285 26 46.3824C26.5461 45.8364 26.8529 45.0957 26.8529 44.3235V26.8529H44.3235C45.0957 26.8529 45.8364 26.5461 46.3824 26C46.9285 25.454 47.2353 24.7134 47.2353 23.9411C47.2353 23.1689 46.9285 22.4282 46.3824 21.8822C45.8364 21.3361 45.0957 21.0294 44.3235 21.0294Z" fill="white"/>
</svg>
