<svg width="24" height="24" viewBox="0 0 18 18" fill="none" xmlns="http://www.w3.org/2000/svg">
<path d="M9 6C8.80109 6 8.61032 6.07902 8.46967 6.21967C8.32902 6.36032 8.25 6.55109 8.25 6.75V15C8.25 15.1989 8.32902 15.3897 8.46967 15.5303C8.61032 15.671 8.80109 15.75 9 15.75C9.19891 15.75 9.38968 15.671 9.53033 15.5303C9.67098 15.3897 9.75 15.1989 9.75 15V6.75C9.75 6.55109 9.67098 6.36032 9.53033 6.21967C9.38968 6.07902 9.19891 6 9 6Z" fill="#F2B705"/>
<path d="M14.25 3C14.0511 3 13.8603 3.07902 13.7197 3.21967C13.579 3.36032 13.5 3.55109 13.5 3.75V15C13.5 15.1989 13.579 15.3897 13.7197 15.5303C13.8603 15.671 14.0511 15.75 14.25 15.75C14.4489 15.75 14.6397 15.671 14.7803 15.5303C14.921 15.3897 15 15.1989 15 15V3.75C15 3.55109 14.921 3.36032 14.7803 3.21967C14.6397 3.07902 14.4489 3 14.25 3V3Z" fill="#F2B705"/>
<path d="M3.75 9C3.55109 9 3.36032 9.07902 3.21967 9.21967C3.07902 9.36032 3 9.55109 3 9.75V15C3 15.1989 3.07902 15.3897 3.21967 15.5303C3.36032 15.671 3.55109 15.75 3.75 15.75C3.94891 15.75 4.13968 15.671 4.28033 15.5303C4.42098 15.3897 4.5 15.1989 4.5 15V9.75C4.5 9.55109 4.42098 9.36032 4.28033 9.21967C4.13968 9.07902 3.94891 9 3.75 9Z" fill="#F2B705"/>
</svg>
